<!DOCTYPE svg PUBLIC "-//W3C//DTD SVG 1.1//EN" "http://www.w3.org/Graphics/SVG/1.1/DTD/svg11.dtd">
<svg width="30%" height="30%" viewBox="118.11 6.82 282.48 320.00" xmlns="http://www.w3.org/2000/svg" xmlns:xlink="http://www.w3.org/1999/xlink">
  <g id="cmpd1">
  <style type="text/css">
    path{stroke:black;stroke-width:1.4;fill:none;}
	circle.arom{stroke:black;stroke-width:1.4;fill:none;}
	text{font-family:Arial;cursor:default;text-anchor:middle;dominant-baseline:middle;font-size:16px;}
	rect{fill:white;}
  </style>
  <path d="M 168.42 131.82 L 198.73 149.32 L 198.73 184.32 L 168.42 201.82 L 138.10999999999999 184.32 L 138.10999999999999 149.32 L 168.42 131.82 "/>
  <path d="M 198.73 149.32 L 229.04 131.82 L 229.04 96.82 L 198.73 79.32 L 168.42 96.82 L 138.10999999999999 79.32 L 138.10999999999999 44.31999999999999 L 168.42 26.819999999999993 L 198.73 44.31999999999999 L 198.73 79.32 "/>
  <path d="M 229.04 96.82 L 259.34999999999997 79.32 L 289.65999999999997 96.82 L 319.96999999999997 79.32 L 350.28 96.82 L 350.28 131.82 L 319.96999999999997 149.32 L 289.65999999999997 131.82 L 289.65999999999997 96.82 "/>
  <path d="M 229.04 131.82 L 259.34999999999997 149.32 L 259.34999999999997 184.32 L 289.65999999999997 201.82 L 289.65999999999997 236.82 L 259.34999999999997 254.32 L 229.03999999999996 236.82 L 229.03999999999996 201.82 L 259.34999999999997 184.32 "/>
  <path d="M 289.65999999999997 236.82 L 319.96999999999997 254.32 L 350.28 236.82 L 380.59 254.32 L 380.59 289.32 L 350.28 306.82 L 319.96999999999997 289.32 L 319.96999999999997 254.32 "/>
  <rect height="19.8" width="14.4" y="67.44" x="252.14999999999998"/>
  <text y="79.32" x="259.34999999999997">O</text>
  <rect height="19.8" width="14.4" y="224.94" x="343.08"/>
  <text y="236.82" x="350.28">S</text><rect height="19.8" width="14.4" y="277.44" x="312.77"/>
  <text y="289.32" x="319.96999999999997">S</text>
  <circle r="15.75" cy="166.82" cx="168.42" class="arom"/>
  <circle r="15.75" cy="219.32" cx="259.34999999999997" class="arom"/>
  <circle r="15.75" cy="61.81999999999999" cx="168.42" class="arom"/>
  </g>
</svg>